<svg xmlns="http://www.w3.org/2000/svg" width="77.35" height="77.35" viewBox="0 0 77.35 77.35">
	<style type="text/css">
		.st0{fill:#43a9ff;}
	</style>
	<path class="st0" d="M48.71,48.72C46.03,51.4 42.47,52.87 38.67,52.87C34.88,52.87 31.31,51.4 28.63,48.72C23.09,43.18 23.09,34.17 28.63,28.63C31.31,25.95 34.88,24.47 38.67,24.47C42.47,24.47 46.03,25.95 48.71,28.63C51.4,31.32 52.87,34.88 52.87,38.67C52.87,42.47 51.4,46.03 48.71,48.72M75.49,36.96C72.66,37.14 69.81,37.22 66.99,37.24L74.65,29.58C75.33,28.9 75.33,27.79 74.65,27.11C73.96,26.42 72.85,26.42 72.17,27.11L62.06,37.22C60.11,37.19 58.19,37.15 56.3,37.09C55.98,33.53 54.62,30.19 52.35,27.43L56.61,23.17L70.54,23.17C71.5,23.17 72.29,22.38 72.29,21.42C72.29,20.45 71.51,19.67 70.54,19.67L60.11,19.67L66,13.78C66.02,13.75 66.04,13.73 66.06,13.7C66.28,13.46 66.42,13.17 66.48,12.87C66.5,12.78 66.51,12.68 66.51,12.59C66.51,12.57 66.51,12.56 66.51,12.54C66.51,12.09 66.34,11.64 66,11.3C65.32,10.62 64.21,10.62 63.53,11.3L57.68,17.15L57.68,6.81C57.68,5.84 56.9,5.06 55.93,5.06C54.96,5.06 54.18,5.84 54.18,6.81L54.18,20.65L49.87,24.96C47.16,22.74 43.88,21.39 40.39,21.06L40.39,21.06L40.39,21.05L40.39,15.02L50.24,5.17C50.92,4.49 50.92,3.38 50.24,2.7C49.56,2.02 48.45,2.02 47.77,2.7L40.39,10.07L40.39,1.74C40.39,0.78 39.61,0 38.64,0C37.68,0 36.89,0.78 36.89,1.74L36.89,10.01L29.58,2.7C28.9,2.02 27.79,2.02 27.11,2.7C26.42,3.39 26.42,4.49 27.11,5.18L36.89,14.96L36.89,21.05L36.89,21.06C36.89,21.06 36.89,21.06 36.89,21.06C33.4,21.41 30.14,22.77 27.43,25L23.17,20.74L23.17,6.81C23.17,5.84 22.38,5.06 21.42,5.06C20.45,5.06 19.67,5.84 19.67,6.81L19.67,17.24L13.78,11.34C13.09,10.66 11.98,10.66 11.3,11.35C10.91,11.74 10.75,12.28 10.81,12.79C10.85,13.17 11.01,13.53 11.3,13.82L17.15,19.67L6.81,19.67C5.84,19.67 5.06,20.45 5.06,21.42C5.06,22.38 5.84,23.17 6.81,23.17L20.65,23.17L24.96,27.48C22.69,30.26 21.39,33.57 21.07,36.95L15.02,36.95L5.18,27.11C4.49,26.42 3.39,26.42 2.7,27.11C2.02,27.79 2.02,28.9 2.7,29.58L10.07,36.95L1.74,36.95C0.78,36.95 0,37.74 0,38.7L0,38.71C0,39.67 0.78,40.46 1.74,40.46L10.01,40.46L2.7,47.77C2.02,48.45 2.02,49.56 2.7,50.24C3.04,50.58 3.49,50.75 3.94,50.75C4.39,50.75 4.83,50.58 5.18,50.24L14.96,40.46L21.07,40.46C21.41,43.82 22.7,47.11 24.96,49.87L20.65,54.18L6.81,54.18C5.84,54.18 5.06,54.97 5.06,55.93C5.06,56.9 5.84,57.68 6.81,57.68L17.15,57.68L11.3,63.53C10.62,64.21 10.62,65.32 11.3,66C11.64,66.34 12.09,66.52 12.54,66.52C12.87,66.52 13.21,66.42 13.5,66.23C13.6,66.16 13.69,66.09 13.78,66L19.66,60.11L19.67,70.54C19.67,71.51 20.45,72.29 21.42,72.29C22.38,72.29 23.17,71.51 23.17,70.54L23.16,56.61L27.43,52.35C30.14,54.58 33.4,55.94 36.89,56.28L36.89,62.39L27.11,72.17C26.42,72.86 26.42,73.96 27.11,74.65C27.45,74.99 27.9,75.16 28.34,75.16C28.79,75.16 29.24,74.99 29.58,74.65L36.89,67.34L36.89,75.6L36.89,75.6C36.89,76.57 37.68,77.35 38.64,77.35C39.61,77.35 40.39,76.57 40.39,75.6L40.39,75.6L40.39,67.27L47.77,74.65C48.11,74.99 48.56,75.16 49,75.16C49.45,75.16 49.9,74.99 50.24,74.65C50.92,73.96 50.92,72.86 50.24,72.17L40.39,62.33L40.39,56.29C43.88,55.96 47.16,54.61 49.87,52.39L53.97,56.49L54.18,56.7L54.18,70.54C54.18,71.51 54.96,72.29 55.93,72.29C56.9,72.29 57.68,71.51 57.68,70.54L57.68,60.2L63.53,66.05C63.87,66.39 64.32,66.56 64.76,66.56C65.21,66.56 65.66,66.39 66,66.05C66.34,65.7 66.51,65.26 66.51,64.81C66.51,64.36 66.34,63.91 66,63.57L60.11,57.68L70.54,57.68C71.51,57.68 72.29,56.9 72.29,55.93C72.29,54.96 71.51,54.18 70.54,54.18L56.61,54.18L52.34,49.91C54.55,47.25 55.9,44.03 56.26,40.59C58.36,40.65 60.49,40.69 62.65,40.72L72.17,50.24C72.51,50.58 72.96,50.75 73.41,50.75C73.86,50.75 74.3,50.58 74.65,50.24C75.33,49.56 75.33,48.45 74.65,47.77L67.6,40.72C70.3,40.7 73.01,40.63 75.72,40.45C76.68,40.39 77.41,39.56 77.35,38.59C77.29,37.63 76.46,36.88 75.49,36.96"></path>
	<path class="st0" d="M47.23,30.12C46.55,29.43 45.44,29.43 44.76,30.12L38.67,36.2L32.59,30.12C31.91,29.43 30.8,29.43 30.11,30.12C29.43,30.8 29.43,31.91 30.11,32.59L36.2,38.68L30.11,44.76C29.43,45.44 29.43,46.55 30.11,47.23C30.46,47.58 30.9,47.75 31.35,47.75C31.8,47.75 32.25,47.58 32.59,47.23L38.67,41.15L44.76,47.23C45.1,47.58 45.55,47.75 46,47.75C46.44,47.75 46.89,47.58 47.23,47.23C47.92,46.55 47.92,45.44 47.23,44.76L41.15,38.68L47.23,32.59C47.92,31.91 47.92,30.8 47.23,30.12"></path>
</svg>
